<svg version="1.1" xmlns="http://www.w3.org/2000/svg" viewBox="0 0 632.8407326798103 1136.8045051626113" width="1898.522198039431" height="3410.413515487834">
  <!-- svg-source:excalidraw -->
  
  <defs>
    <style class="style-fonts">
      @font-face {
        font-family: "Virgil";
        src: url("https://excalidraw.com/Virgil.woff2");
      }
      @font-face {
        font-family: "Cascadia";
        src: url("https://excalidraw.com/Cascadia.woff2");
      }
    </style>
  </defs>
  <rect x="0" y="0" width="632.8407326798103" height="1136.8045051626113" fill="#ffffff"></rect><g stroke-opacity="0.8" fill-opacity="0.8" transform="translate(152.86947294122592 10) rotate(0 42 9.5)"><text x="42" y="15" font-family="Helvetica, Segoe UI Emoji" font-size="16px" fill="#000000" text-anchor="middle" style="white-space: pre;" direction="ltr">REGISTER</text></g><g stroke-opacity="0.8" fill-opacity="0.8" stroke-linecap="round" transform="translate(29.213052799542538 41.232807248075915) rotate(0 26.16617569461323 26.16617569461323)"><path d="M52.33 26.17 C52.33 27.68, 52.2 29.22, 51.93 30.71 C51.67 32.2, 51.27 33.69, 50.75 35.12 C50.24 36.54, 49.58 37.94, 48.83 39.25 C48.07 40.56, 47.18 41.83, 46.21 42.99 C45.24 44.15, 44.15 45.24, 42.99 46.21 C41.83 47.18, 40.56 48.07, 39.25 48.83 C37.94 49.58, 36.54 50.24, 35.12 50.75 C33.69 51.27, 32.2 51.67, 30.71 51.93 C29.22 52.2, 27.68 52.33, 26.17 52.33 C24.65 52.33, 23.11 52.2, 21.62 51.93 C20.13 51.67, 18.64 51.27, 17.22 50.75 C15.79 50.24, 14.39 49.58, 13.08 48.83 C11.77 48.07, 10.51 47.18, 9.35 46.21 C8.19 45.24, 7.1 44.15, 6.12 42.99 C5.15 41.83, 4.26 40.56, 3.51 39.25 C2.75 37.94, 2.1 36.54, 1.58 35.12 C1.06 33.69, 0.66 32.2, 0.4 30.71 C0.13 29.22, 0 27.68, 0 26.17 C0 24.65, 0.13 23.11, 0.4 21.62 C0.66 20.13, 1.06 18.64, 1.58 17.22 C2.1 15.79, 2.75 14.39, 3.51 13.08 C4.26 11.77, 5.15 10.51, 6.12 9.35 C7.1 8.19, 8.19 7.1, 9.35 6.12 C10.51 5.15, 11.77 4.26, 13.08 3.51 C14.39 2.75, 15.79 2.1, 17.22 1.58 C18.64 1.06, 20.13 0.66, 21.62 0.4 C23.11 0.13, 24.65 0, 26.17 0 C27.68 0, 29.22 0.13, 30.71 0.4 C32.2 0.66, 33.69 1.06, 35.12 1.58 C36.54 2.1, 37.94 2.75, 39.25 3.51 C40.56 4.26, 41.83 5.15, 42.99 6.12 C44.15 7.1, 45.24 8.19, 46.21 9.35 C47.18 10.51, 48.07 11.77, 48.83 13.08 C49.58 14.39, 50.24 15.79, 50.75 17.22 C51.27 18.64, 51.67 20.13, 51.93 21.62 C52.2 23.11, 52.27 25.41, 52.33 26.17 C52.4 26.92, 52.4 25.41, 52.33 26.17" stroke="#000000" stroke-width="1" fill="none"></path></g><g stroke-opacity="0.8" fill-opacity="0.8" transform="translate(44.37922849415577 57.898982942690054) rotate(0 11 9.5)"><text x="11" y="15" font-family="Helvetica, Segoe UI Emoji" font-size="16px" fill="#000000" text-anchor="middle" style="white-space: pre;" direction="ltr">P1</text></g><g stroke-linecap="round"><g stroke-opacity="0.8" fill-opacity="0.8" transform="translate(89.82793243219635 70.7383895470266) rotate(0 106.58913410872253 0.17707677315411274)"><path d="M0 0 C50.41 0.08, 100.81 0.17, 213.18 0.35 M0 0 C77.44 0.13, 154.87 0.26, 213.18 0.35" stroke="#000000" stroke-width="1" fill="none"></path></g><g stroke-opacity="0.8" fill-opacity="0.8" transform="translate(89.82793243219635 70.7383895470266) rotate(0 106.58913410872253 0.17707677315411274)"><path d="M184.97 10.57 C191.64 8.15, 198.31 5.74, 213.18 0.35 M184.97 10.57 C195.22 6.86, 205.46 3.15, 213.18 0.35" stroke="#000000" stroke-width="1" fill="none"></path></g><g stroke-opacity="0.8" fill-opacity="0.8" transform="translate(89.82793243219635 70.7383895470266) rotate(0 106.58913410872253 0.17707677315411274)"><path d="M185 -9.95 C191.67 -7.52, 198.33 -5.08, 213.18 0.35 M185 -9.95 C195.24 -6.21, 205.47 -2.47, 213.18 0.35" stroke="#000000" stroke-width="1" fill="none"></path></g></g><g stroke-opacity="0.8" fill-opacity="0.8" transform="translate(155.57190756003433 47.39027456184522) rotate(0 30 9.5)"><text x="30" y="15" font-family="Helvetica, Segoe UI Emoji" font-size="16px" fill="#000000" text-anchor="middle" style="white-space: pre;" direction="ltr">/register</text></g><g stroke-opacity="0.8" fill-opacity="0.8" transform="translate(99.9337081528488 73.30117049358341) rotate(0 85 9.5)"><text x="85" y="15" font-family="Helvetica, Segoe UI Emoji" font-size="16px" fill="#000000" text-anchor="middle" style="white-space: pre;" direction="ltr">{ username, password }</text></g><g stroke-opacity="0.8" fill-opacity="0.8" stroke-linecap="round" transform="translate(305.5533961109427 42.50920606244472) rotate(0 29.99537213772703 29.995372137726918)"><path d="M59.99 30 C59.99 31.73, 59.84 33.49, 59.54 35.2 C59.23 36.91, 58.78 38.62, 58.18 40.25 C57.59 41.89, 56.84 43.49, 55.97 44.99 C55.1 46.5, 54.09 47.95, 52.97 49.28 C51.86 50.61, 50.61 51.86, 49.28 52.97 C47.95 54.09, 46.5 55.1, 44.99 55.97 C43.49 56.84, 41.89 57.59, 40.25 58.18 C38.62 58.78, 36.91 59.23, 35.2 59.54 C33.49 59.84, 31.73 59.99, 30 59.99 C28.26 59.99, 26.5 59.84, 24.79 59.54 C23.08 59.23, 21.37 58.78, 19.74 58.18 C18.1 57.59, 16.5 56.84, 15 55.97 C13.49 55.1, 12.04 54.09, 10.71 52.97 C9.38 51.86, 8.13 50.61, 7.02 49.28 C5.9 47.95, 4.89 46.5, 4.02 44.99 C3.15 43.49, 2.4 41.89, 1.81 40.25 C1.22 38.62, 0.76 36.91, 0.46 35.2 C0.15 33.49, 0 31.73, 0 30 C0 28.26, 0.15 26.5, 0.46 24.79 C0.76 23.08, 1.22 21.37, 1.81 19.74 C2.4 18.1, 3.15 16.5, 4.02 15 C4.89 13.49, 5.9 12.04, 7.02 10.71 C8.13 9.38, 9.38 8.13, 10.71 7.02 C12.04 5.9, 13.49 4.89, 15 4.02 C16.5 3.15, 18.1 2.4, 19.74 1.81 C21.37 1.22, 23.08 0.76, 24.79 0.46 C26.5 0.15, 28.26 0, 30 0 C31.73 0, 33.49 0.15, 35.2 0.46 C36.91 0.76, 38.62 1.22, 40.25 1.81 C41.89 2.4, 43.49 3.15, 44.99 4.02 C46.5 4.89, 47.95 5.9, 49.28 7.02 C50.61 8.13, 51.86 9.38, 52.97 10.71 C54.09 12.04, 55.1 13.49, 55.97 15 C56.84 16.5, 57.59 18.1, 58.18 19.74 C58.78 21.37, 59.23 23.08, 59.54 24.79 C59.84 26.5, 59.91 29.13, 59.99 30 C60.07 30.86, 60.07 29.13, 59.99 30" stroke="#000000" stroke-width="1" fill="none"></path></g><g stroke-opacity="0.8" fill-opacity="0.8" transform="translate(311.04876824866983 63.004578200172546) rotate(0 24.5 9.5)"><text x="24.5" y="15" font-family="Helvetica, Segoe UI Emoji" font-size="16px" fill="#000000" text-anchor="middle" style="white-space: pre;" direction="ltr">Server</text></g><g stroke-opacity="0.8" fill-opacity="0.8" stroke-linecap="round" transform="translate(27.234634637267163 128.921405795385) rotate(0 26.16617569461323 26.16617569461323)"><path d="M52.33 26.17 C52.33 27.68, 52.2 29.22, 51.93 30.71 C51.67 32.2, 51.27 33.69, 50.75 35.12 C50.24 36.54, 49.58 37.94, 48.83 39.25 C48.07 40.56, 47.18 41.83, 46.21 42.99 C45.24 44.15, 44.15 45.24, 42.99 46.21 C41.83 47.18, 40.56 48.07, 39.25 48.83 C37.94 49.58, 36.54 50.24, 35.12 50.75 C33.69 51.27, 32.2 51.67, 30.71 51.93 C29.22 52.2, 27.68 52.33, 26.17 52.33 C24.65 52.33, 23.11 52.2, 21.62 51.93 C20.13 51.67, 18.64 51.27, 17.22 50.75 C15.79 50.24, 14.39 49.58, 13.08 48.83 C11.77 48.07, 10.51 47.18, 9.35 46.21 C8.19 45.24, 7.1 44.15, 6.12 42.99 C5.15 41.83, 4.26 40.56, 3.51 39.25 C2.75 37.94, 2.1 36.54, 1.58 35.12 C1.06 33.69, 0.66 32.2, 0.4 30.71 C0.13 29.22, 0 27.68, 0 26.17 C0 24.65, 0.13 23.11, 0.4 21.62 C0.66 20.13, 1.06 18.64, 1.58 17.22 C2.1 15.79, 2.75 14.39, 3.51 13.08 C4.26 11.77, 5.15 10.51, 6.12 9.35 C7.1 8.19, 8.19 7.1, 9.35 6.12 C10.51 5.15, 11.77 4.26, 13.08 3.51 C14.39 2.75, 15.79 2.1, 17.22 1.58 C18.64 1.06, 20.13 0.66, 21.62 0.4 C23.11 0.13, 24.65 0, 26.17 0 C27.68 0, 29.22 0.13, 30.71 0.4 C32.2 0.66, 33.69 1.06, 35.12 1.58 C36.54 2.1, 37.94 2.75, 39.25 3.51 C40.56 4.26, 41.83 5.15, 42.99 6.12 C44.15 7.1, 45.24 8.19, 46.21 9.35 C47.18 10.51, 48.07 11.77, 48.83 13.08 C49.58 14.39, 50.24 15.79, 50.75 17.22 C51.27 18.64, 51.67 20.13, 51.93 21.62 C52.2 23.11, 52.27 25.41, 52.33 26.17 C52.4 26.92, 52.4 25.41, 52.33 26.17" stroke="#000000" stroke-width="1" fill="none"></path></g><g stroke-opacity="0.8" fill-opacity="0.8" transform="translate(42.40081033188039 145.58758149000096) rotate(0 11 9.5)"><text x="11" y="15" font-family="Helvetica, Segoe UI Emoji" font-size="16px" fill="#000000" text-anchor="middle" style="white-space: pre;" direction="ltr">P1</text></g><g stroke-linecap="round"><g stroke-opacity="0.8" fill-opacity="0.8" transform="translate(301.0277824873656 158.42698809433386) rotate(0 -106.58913410872253 0.17707677315411274)"><path d="M0 0 C-59.54 0.1, -119.09 0.2, -213.18 0.35 M0 0 C-48.7 0.08, -97.41 0.16, -213.18 0.35" stroke="#000000" stroke-width="1" fill="none"></path></g><g stroke-opacity="0.8" fill-opacity="0.8" transform="translate(301.0277824873656 158.42698809433386) rotate(0 -106.58913410872253 0.17707677315411274)"><path d="M-185 -9.95 C-192.87 -7.07, -200.74 -4.2, -213.18 0.35 M-185 -9.95 C-191.44 -7.6, -197.88 -5.24, -213.18 0.35" stroke="#000000" stroke-width="1" fill="none"></path></g><g stroke-opacity="0.8" fill-opacity="0.8" transform="translate(301.0277824873656 158.42698809433386) rotate(0 -106.58913410872253 0.17707677315411274)"><path d="M-184.97 10.57 C-192.85 7.72, -200.73 4.86, -213.18 0.35 M-184.97 10.57 C-191.41 8.23, -197.86 5.9, -213.18 0.35" stroke="#000000" stroke-width="1" fill="none"></path></g></g><g stroke-opacity="0.8" fill-opacity="0.8" stroke-linecap="round" transform="translate(303.5749779486671 130.19780460975198) rotate(0 29.99537213772703 29.995372137726918)"><path d="M59.99 30 C59.99 31.73, 59.84 33.49, 59.54 35.2 C59.23 36.91, 58.78 38.62, 58.18 40.25 C57.59 41.89, 56.84 43.49, 55.97 44.99 C55.1 46.5, 54.09 47.95, 52.97 49.28 C51.86 50.61, 50.61 51.86, 49.28 52.97 C47.95 54.09, 46.5 55.1, 44.99 55.97 C43.49 56.84, 41.89 57.59, 40.25 58.18 C38.62 58.78, 36.91 59.23, 35.2 59.54 C33.49 59.84, 31.73 59.99, 30 59.99 C28.26 59.99, 26.5 59.84, 24.79 59.54 C23.08 59.23, 21.37 58.78, 19.74 58.18 C18.1 57.59, 16.5 56.84, 15 55.97 C13.49 55.1, 12.04 54.09, 10.71 52.97 C9.38 51.86, 8.13 50.61, 7.02 49.28 C5.9 47.95, 4.89 46.5, 4.02 44.99 C3.15 43.49, 2.4 41.89, 1.81 40.25 C1.22 38.62, 0.76 36.91, 0.46 35.2 C0.15 33.49, 0 31.73, 0 30 C0 28.26, 0.15 26.5, 0.46 24.79 C0.76 23.08, 1.22 21.37, 1.81 19.74 C2.4 18.1, 3.15 16.5, 4.02 15 C4.89 13.49, 5.9 12.04, 7.02 10.71 C8.13 9.38, 9.38 8.13, 10.71 7.02 C12.04 5.9, 13.49 4.89, 15 4.02 C16.5 3.15, 18.1 2.4, 19.74 1.81 C21.37 1.22, 23.08 0.76, 24.79 0.46 C26.5 0.15, 28.26 0, 30 0 C31.73 0, 33.49 0.15, 35.2 0.46 C36.91 0.76, 38.62 1.22, 40.25 1.81 C41.89 2.4, 43.49 3.15, 44.99 4.02 C46.5 4.89, 47.95 5.9, 49.28 7.02 C50.61 8.13, 51.86 9.38, 52.97 10.71 C54.09 12.04, 55.1 13.49, 55.97 15 C56.84 16.5, 57.59 18.1, 58.18 19.74 C58.78 21.37, 59.23 23.08, 59.54 24.79 C59.84 26.5, 59.91 29.13, 59.99 30 C60.07 30.86, 60.07 29.13, 59.99 30" stroke="#000000" stroke-width="1" fill="none"></path></g><g stroke-opacity="0.8" fill-opacity="0.8" transform="translate(309.070350086394 150.69317674748345) rotate(0 24.5 9.5)"><text x="24.5" y="15" font-family="Helvetica, Segoe UI Emoji" font-size="16px" fill="#000000" text-anchor="middle" style="white-space: pre;" direction="ltr">Server</text></g><g stroke-opacity="0.8" fill-opacity="0.8" transform="translate(81.24733897919327 176.0512750504804) rotate(0 141.5 47)"><text x="0" y="14.8" font-family="Helvetica, Segoe UI Emoji" font-size="15.999999999999694px" fill="#000000" text-anchor="start" style="white-space: pre;" direction="ltr">on success:</text><text x="0" y="33.6" font-family="Helvetica, Segoe UI Emoji" font-size="15.999999999999694px" fill="#000000" text-anchor="start" style="white-space: pre;" direction="ltr">{ status: "success" }</text><text x="0" y="52.400000000000006" font-family="Helvetica, Segoe UI Emoji" font-size="15.999999999999694px" fill="#000000" text-anchor="start" style="white-space: pre;" direction="ltr">on failure:</text><text x="0" y="71.2" font-family="Helvetica, Segoe UI Emoji" font-size="15.999999999999694px" fill="#000000" text-anchor="start" style="white-space: pre;" direction="ltr">{ status: "error", error: "error message" }</text><text x="0" y="90" font-family="Helvetica, Segoe UI Emoji" font-size="15.999999999999694px" fill="#000000" text-anchor="start" style="white-space: pre;" direction="ltr"></text></g><g stroke-opacity="0.8" fill-opacity="0.8" transform="translate(157.08367156667396 313.6557158941214) rotate(0 28.5 9.5)"><text x="28.5" y="15" font-family="Helvetica, Segoe UI Emoji" font-size="16px" fill="#000000" text-anchor="middle" style="white-space: pre;" direction="ltr">SIGNIN</text></g><g stroke-opacity="0.8" fill-opacity="0.8" stroke-linecap="round" transform="translate(19.927251424990345 344.8885231421991) rotate(0 26.16617569461323 26.16617569461323)"><path d="M52.33 26.17 C52.33 27.68, 52.2 29.22, 51.93 30.71 C51.67 32.2, 51.27 33.69, 50.75 35.12 C50.24 36.54, 49.58 37.94, 48.83 39.25 C48.07 40.56, 47.18 41.83, 46.21 42.99 C45.24 44.15, 44.15 45.24, 42.99 46.21 C41.83 47.18, 40.56 48.07, 39.25 48.83 C37.94 49.58, 36.54 50.24, 35.12 50.75 C33.69 51.27, 32.2 51.67, 30.71 51.93 C29.22 52.2, 27.68 52.33, 26.17 52.33 C24.65 52.33, 23.11 52.2, 21.62 51.93 C20.13 51.67, 18.64 51.27, 17.22 50.75 C15.79 50.24, 14.39 49.58, 13.08 48.83 C11.77 48.07, 10.51 47.18, 9.35 46.21 C8.19 45.24, 7.1 44.15, 6.12 42.99 C5.15 41.83, 4.26 40.56, 3.51 39.25 C2.75 37.94, 2.1 36.54, 1.58 35.12 C1.06 33.69, 0.66 32.2, 0.4 30.71 C0.13 29.22, 0 27.68, 0 26.17 C0 24.65, 0.13 23.11, 0.4 21.62 C0.66 20.13, 1.06 18.64, 1.58 17.22 C2.1 15.79, 2.75 14.39, 3.51 13.08 C4.26 11.77, 5.15 10.51, 6.12 9.35 C7.1 8.19, 8.19 7.1, 9.35 6.12 C10.51 5.15, 11.77 4.26, 13.08 3.51 C14.39 2.75, 15.79 2.1, 17.22 1.58 C18.64 1.06, 20.13 0.66, 21.62 0.4 C23.11 0.13, 24.65 0, 26.17 0 C27.68 0, 29.22 0.13, 30.71 0.4 C32.2 0.66, 33.69 1.06, 35.12 1.58 C36.54 2.1, 37.94 2.75, 39.25 3.51 C40.56 4.26, 41.83 5.15, 42.99 6.12 C44.15 7.1, 45.24 8.19, 46.21 9.35 C47.18 10.51, 48.07 11.77, 48.83 13.08 C49.58 14.39, 50.24 15.79, 50.75 17.22 C51.27 18.64, 51.67 20.13, 51.93 21.62 C52.2 23.11, 52.27 25.41, 52.33 26.17 C52.4 26.92, 52.4 25.41, 52.33 26.17" stroke="#000000" stroke-width="1" fill="none"></path></g><g stroke-opacity="0.8" fill-opacity="0.8" transform="translate(35.093427119603575 361.55469883681144) rotate(0 11 9.5)"><text x="11" y="15" font-family="Helvetica, Segoe UI Emoji" font-size="16px" fill="#000000" text-anchor="middle" style="white-space: pre;" direction="ltr">P1</text></g><g stroke-linecap="round"><g stroke-opacity="0.8" fill-opacity="0.8" transform="translate(80.54213105764461 374.394105441148) rotate(0 106.58913410872253 0.17707677315411274)"><path d="M0 0 C53.95 0.09, 107.9 0.18, 213.18 0.35 M0 0 C53.45 0.09, 106.9 0.18, 213.18 0.35" stroke="#000000" stroke-width="1" fill="none"></path></g><g stroke-opacity="0.8" fill-opacity="0.8" transform="translate(80.54213105764461 374.394105441148) rotate(0 106.58913410872253 0.17707677315411274)"><path d="M184.97 10.57 C192.11 7.98, 199.25 5.4, 213.18 0.35 M184.97 10.57 C192.04 8.01, 199.12 5.45, 213.18 0.35" stroke="#000000" stroke-width="1" fill="none"></path></g><g stroke-opacity="0.8" fill-opacity="0.8" transform="translate(80.54213105764461 374.394105441148) rotate(0 106.58913410872253 0.17707677315411274)"><path d="M185 -9.95 C192.13 -7.34, 199.26 -4.74, 213.18 0.35 M185 -9.95 C192.07 -7.37, 199.13 -4.78, 213.18 0.35" stroke="#000000" stroke-width="1" fill="none"></path></g></g><g stroke-opacity="0.8" fill-opacity="0.8" transform="translate(152.2861061854826 351.0459904559648) rotate(0 24 9.5)"><text x="24" y="15" font-family="Helvetica, Segoe UI Emoji" font-size="16px" fill="#000000" text-anchor="middle" style="white-space: pre;" direction="ltr">/signin</text></g><g stroke-opacity="0.8" fill-opacity="0.8" transform="translate(90.64790677829683 376.956886387703) rotate(0 85 9.5)"><text x="85" y="15" font-family="Helvetica, Segoe UI Emoji" font-size="16px" fill="#000000" text-anchor="middle" style="white-space: pre;" direction="ltr">{ username, password }</text></g><g stroke-opacity="0.8" fill-opacity="0.8" stroke-linecap="round" transform="translate(296.2675947363907 346.1649219565661) rotate(0 29.99537213772703 29.995372137726918)"><path d="M59.99 30 C59.99 31.73, 59.84 33.49, 59.54 35.2 C59.23 36.91, 58.78 38.62, 58.18 40.25 C57.59 41.89, 56.84 43.49, 55.97 44.99 C55.1 46.5, 54.09 47.95, 52.97 49.28 C51.86 50.61, 50.61 51.86, 49.28 52.97 C47.95 54.09, 46.5 55.1, 44.99 55.97 C43.49 56.84, 41.89 57.59, 40.25 58.18 C38.62 58.78, 36.91 59.23, 35.2 59.54 C33.49 59.84, 31.73 59.99, 30 59.99 C28.26 59.99, 26.5 59.84, 24.79 59.54 C23.08 59.23, 21.37 58.78, 19.74 58.18 C18.1 57.59, 16.5 56.84, 15 55.97 C13.49 55.1, 12.04 54.09, 10.71 52.97 C9.38 51.86, 8.13 50.61, 7.02 49.28 C5.9 47.95, 4.89 46.5, 4.02 44.99 C3.15 43.49, 2.4 41.89, 1.81 40.25 C1.22 38.62, 0.76 36.91, 0.46 35.2 C0.15 33.49, 0 31.73, 0 30 C0 28.26, 0.15 26.5, 0.46 24.79 C0.76 23.08, 1.22 21.37, 1.81 19.74 C2.4 18.1, 3.15 16.5, 4.02 15 C4.89 13.49, 5.9 12.04, 7.02 10.71 C8.13 9.38, 9.38 8.13, 10.71 7.02 C12.04 5.9, 13.49 4.89, 15 4.02 C16.5 3.15, 18.1 2.4, 19.74 1.81 C21.37 1.22, 23.08 0.76, 24.79 0.46 C26.5 0.15, 28.26 0, 30 0 C31.73 0, 33.49 0.15, 35.2 0.46 C36.91 0.76, 38.62 1.22, 40.25 1.81 C41.89 2.4, 43.49 3.15, 44.99 4.02 C46.5 4.89, 47.95 5.9, 49.28 7.02 C50.61 8.13, 51.86 9.38, 52.97 10.71 C54.09 12.04, 55.1 13.49, 55.97 15 C56.84 16.5, 57.59 18.1, 58.18 19.74 C58.78 21.37, 59.23 23.08, 59.54 24.79 C59.84 26.5, 59.91 29.13, 59.99 30 C60.07 30.86, 60.07 29.13, 59.99 30" stroke="#000000" stroke-width="1" fill="none"></path></g><g stroke-opacity="0.8" fill-opacity="0.8" transform="translate(301.7629668741181 366.66029409429393) rotate(0 24.5 9.5)"><text x="24.5" y="15" font-family="Helvetica, Segoe UI Emoji" font-size="16px" fill="#000000" text-anchor="middle" style="white-space: pre;" direction="ltr">Server</text></g><g stroke-opacity="0.8" fill-opacity="0.8" stroke-linecap="round" transform="translate(17.94883326271497 432.57712168950457) rotate(0 26.16617569461323 26.16617569461323)"><path d="M52.33 26.17 C52.33 27.68, 52.2 29.22, 51.93 30.71 C51.67 32.2, 51.27 33.69, 50.75 35.12 C50.24 36.54, 49.58 37.94, 48.83 39.25 C48.07 40.56, 47.18 41.83, 46.21 42.99 C45.24 44.15, 44.15 45.24, 42.99 46.21 C41.83 47.18, 40.56 48.07, 39.25 48.83 C37.94 49.58, 36.54 50.24, 35.12 50.75 C33.69 51.27, 32.2 51.67, 30.71 51.93 C29.22 52.2, 27.68 52.33, 26.17 52.33 C24.65 52.33, 23.11 52.2, 21.62 51.93 C20.13 51.67, 18.64 51.27, 17.22 50.75 C15.79 50.24, 14.39 49.58, 13.08 48.83 C11.77 48.07, 10.51 47.18, 9.35 46.21 C8.19 45.24, 7.1 44.15, 6.12 42.99 C5.15 41.83, 4.26 40.56, 3.51 39.25 C2.75 37.94, 2.1 36.54, 1.58 35.12 C1.06 33.69, 0.66 32.2, 0.4 30.71 C0.13 29.22, 0 27.68, 0 26.17 C0 24.65, 0.13 23.11, 0.4 21.62 C0.66 20.13, 1.06 18.64, 1.58 17.22 C2.1 15.79, 2.75 14.39, 3.51 13.08 C4.26 11.77, 5.15 10.51, 6.12 9.35 C7.1 8.19, 8.19 7.1, 9.35 6.12 C10.51 5.15, 11.77 4.26, 13.08 3.51 C14.39 2.75, 15.79 2.1, 17.22 1.58 C18.64 1.06, 20.13 0.66, 21.62 0.4 C23.11 0.13, 24.65 0, 26.17 0 C27.68 0, 29.22 0.13, 30.71 0.4 C32.2 0.66, 33.69 1.06, 35.12 1.58 C36.54 2.1, 37.94 2.75, 39.25 3.51 C40.56 4.26, 41.83 5.15, 42.99 6.12 C44.15 7.1, 45.24 8.19, 46.21 9.35 C47.18 10.51, 48.07 11.77, 48.83 13.08 C49.58 14.39, 50.24 15.79, 50.75 17.22 C51.27 18.64, 51.67 20.13, 51.93 21.62 C52.2 23.11, 52.27 25.41, 52.33 26.17 C52.4 26.92, 52.4 25.41, 52.33 26.17" stroke="#000000" stroke-width="1" fill="none"></path></g><g stroke-opacity="0.8" fill-opacity="0.8" transform="translate(33.1150089573282 449.24329738412416) rotate(0 11 9.5)"><text x="11" y="15" font-family="Helvetica, Segoe UI Emoji" font-size="16px" fill="#000000" text-anchor="middle" style="white-space: pre;" direction="ltr">P1</text></g><g stroke-linecap="round"><g stroke-opacity="0.8" fill-opacity="0.8" transform="translate(291.7419811128136 462.08270398845707) rotate(0 -106.58913410872253 0.17707677315411274)"><path d="M0 0 C-83.66 0.14, -167.32 0.28, -213.18 0.35 M0 0 C-53.91 0.09, -107.81 0.18, -213.18 0.35" stroke="#000000" stroke-width="1" fill="none"></path></g><g stroke-opacity="0.8" fill-opacity="0.8" transform="translate(291.7419811128136 462.08270398845707) rotate(0 -106.58913410872253 0.17707677315411274)"><path d="M-185 -9.95 C-196.06 -5.91, -207.12 -1.86, -213.18 0.35 M-185 -9.95 C-192.13 -7.35, -199.25 -4.74, -213.18 0.35" stroke="#000000" stroke-width="1" fill="none"></path></g><g stroke-opacity="0.8" fill-opacity="0.8" transform="translate(291.7419811128136 462.08270398845707) rotate(0 -106.58913410872253 0.17707677315411274)"><path d="M-184.97 10.57 C-196.04 6.56, -207.11 2.55, -213.18 0.35 M-184.97 10.57 C-192.1 7.99, -199.24 5.4, -213.18 0.35" stroke="#000000" stroke-width="1" fill="none"></path></g></g><g stroke-opacity="0.8" fill-opacity="0.8" stroke-linecap="round" transform="translate(294.2891765741149 433.8535205038752) rotate(0 29.99537213772703 29.995372137726918)"><path d="M59.99 30 C59.99 31.73, 59.84 33.49, 59.54 35.2 C59.23 36.91, 58.78 38.62, 58.18 40.25 C57.59 41.89, 56.84 43.49, 55.97 44.99 C55.1 46.5, 54.09 47.95, 52.97 49.28 C51.86 50.61, 50.61 51.86, 49.28 52.97 C47.95 54.09, 46.5 55.1, 44.99 55.97 C43.49 56.84, 41.89 57.59, 40.25 58.18 C38.62 58.78, 36.91 59.23, 35.2 59.54 C33.49 59.84, 31.73 59.99, 30 59.99 C28.26 59.99, 26.5 59.84, 24.79 59.54 C23.08 59.23, 21.37 58.78, 19.74 58.18 C18.1 57.59, 16.5 56.84, 15 55.97 C13.49 55.1, 12.04 54.09, 10.71 52.97 C9.38 51.86, 8.13 50.61, 7.02 49.28 C5.9 47.95, 4.89 46.5, 4.02 44.99 C3.15 43.49, 2.4 41.89, 1.81 40.25 C1.22 38.62, 0.76 36.91, 0.46 35.2 C0.15 33.49, 0 31.73, 0 30 C0 28.26, 0.15 26.5, 0.46 24.79 C0.76 23.08, 1.22 21.37, 1.81 19.74 C2.4 18.1, 3.15 16.5, 4.02 15 C4.89 13.49, 5.9 12.04, 7.02 10.71 C8.13 9.38, 9.38 8.13, 10.71 7.02 C12.04 5.9, 13.49 4.89, 15 4.02 C16.5 3.15, 18.1 2.4, 19.74 1.81 C21.37 1.22, 23.08 0.76, 24.79 0.46 C26.5 0.15, 28.26 0, 30 0 C31.73 0, 33.49 0.15, 35.2 0.46 C36.91 0.76, 38.62 1.22, 40.25 1.81 C41.89 2.4, 43.49 3.15, 44.99 4.02 C46.5 4.89, 47.95 5.9, 49.28 7.02 C50.61 8.13, 51.86 9.38, 52.97 10.71 C54.09 12.04, 55.1 13.49, 55.97 15 C56.84 16.5, 57.59 18.1, 58.18 19.74 C58.78 21.37, 59.23 23.08, 59.54 24.79 C59.84 26.5, 59.91 29.13, 59.99 30 C60.07 30.86, 60.07 29.13, 59.99 30" stroke="#000000" stroke-width="1" fill="none"></path></g><g stroke-opacity="0.8" fill-opacity="0.8" transform="translate(299.7845487118418 454.34889264160665) rotate(0 24.5 9.5)"><text x="24.5" y="15" font-family="Helvetica, Segoe UI Emoji" font-size="16px" fill="#000000" text-anchor="middle" style="white-space: pre;" direction="ltr">Server</text></g><g stroke-opacity="0.8" fill-opacity="0.8" transform="translate(71.96153760464108 479.7069909446036) rotate(0 141.5 47)"><text x="0" y="14.8" font-family="Helvetica, Segoe UI Emoji" font-size="15.999999999999694px" fill="#000000" text-anchor="start" style="white-space: pre;" direction="ltr">on success:</text><text x="0" y="33.6" font-family="Helvetica, Segoe UI Emoji" font-size="15.999999999999694px" fill="#000000" text-anchor="start" style="white-space: pre;" direction="ltr">{ status: "success" }</text><text x="0" y="52.400000000000006" font-family="Helvetica, Segoe UI Emoji" font-size="15.999999999999694px" fill="#000000" text-anchor="start" style="white-space: pre;" direction="ltr">on failure:</text><text x="0" y="71.2" font-family="Helvetica, Segoe UI Emoji" font-size="15.999999999999694px" fill="#000000" text-anchor="start" style="white-space: pre;" direction="ltr">{ status: "error", error: "error message" }</text><text x="0" y="90" font-family="Helvetica, Segoe UI Emoji" font-size="15.999999999999694px" fill="#000000" text-anchor="start" style="white-space: pre;" direction="ltr"></text></g><g stroke-opacity="0.8" fill-opacity="0.8" transform="translate(373.84073267981034 454.3062165834326) rotate(0 124.5 9.5)"><text x="0" y="15" font-family="Helvetica, Segoe UI Emoji" font-size="16px" fill="#000000" text-anchor="start" style="white-space: pre;" direction="ltr">req.session.username = username</text></g><g stroke-opacity="0.8" fill-opacity="0.8" transform="translate(144.36807344288195 614.3752765600093) rotate(0 38.5 9.5)"><text x="38.5" y="15" font-family="Helvetica, Segoe UI Emoji" font-size="16px" fill="#000000" text-anchor="middle" style="white-space: pre;" direction="ltr">VALIDATE</text></g><g stroke-opacity="0.8" fill-opacity="0.8" stroke-linecap="round" transform="translate(17.21165330119834 645.608083808087) rotate(0 26.16617569461323 26.16617569461323)"><path d="M52.33 26.17 C52.33 27.68, 52.2 29.22, 51.93 30.71 C51.67 32.2, 51.27 33.69, 50.75 35.12 C50.24 36.54, 49.58 37.94, 48.83 39.25 C48.07 40.56, 47.18 41.83, 46.21 42.99 C45.24 44.15, 44.15 45.24, 42.99 46.21 C41.83 47.18, 40.56 48.07, 39.25 48.83 C37.94 49.58, 36.54 50.24, 35.12 50.75 C33.69 51.27, 32.2 51.67, 30.71 51.93 C29.22 52.2, 27.68 52.33, 26.17 52.33 C24.65 52.33, 23.11 52.2, 21.62 51.93 C20.13 51.67, 18.64 51.27, 17.22 50.75 C15.79 50.24, 14.39 49.58, 13.08 48.83 C11.77 48.07, 10.51 47.18, 9.35 46.21 C8.19 45.24, 7.1 44.15, 6.12 42.99 C5.15 41.83, 4.26 40.56, 3.51 39.25 C2.75 37.94, 2.1 36.54, 1.58 35.12 C1.06 33.69, 0.66 32.2, 0.4 30.71 C0.13 29.22, 0 27.68, 0 26.17 C0 24.65, 0.13 23.11, 0.4 21.62 C0.66 20.13, 1.06 18.64, 1.58 17.22 C2.1 15.79, 2.75 14.39, 3.51 13.08 C4.26 11.77, 5.15 10.51, 6.12 9.35 C7.1 8.19, 8.19 7.1, 9.35 6.12 C10.51 5.15, 11.77 4.26, 13.08 3.51 C14.39 2.75, 15.79 2.1, 17.22 1.58 C18.64 1.06, 20.13 0.66, 21.62 0.4 C23.11 0.13, 24.65 0, 26.17 0 C27.68 0, 29.22 0.13, 30.71 0.4 C32.2 0.66, 33.69 1.06, 35.12 1.58 C36.54 2.1, 37.94 2.75, 39.25 3.51 C40.56 4.26, 41.83 5.15, 42.99 6.12 C44.15 7.1, 45.24 8.19, 46.21 9.35 C47.18 10.51, 48.07 11.77, 48.83 13.08 C49.58 14.39, 50.24 15.79, 50.75 17.22 C51.27 18.64, 51.67 20.13, 51.93 21.62 C52.2 23.11, 52.27 25.41, 52.33 26.17 C52.4 26.92, 52.4 25.41, 52.33 26.17" stroke="#000000" stroke-width="1" fill="none"></path></g><g stroke-opacity="0.8" fill-opacity="0.8" transform="translate(32.37782899581157 662.2742595026994) rotate(0 11 9.5)"><text x="11" y="15" font-family="Helvetica, Segoe UI Emoji" font-size="16px" fill="#000000" text-anchor="middle" style="white-space: pre;" direction="ltr">P1</text></g><g stroke-linecap="round"><g stroke-opacity="0.8" fill-opacity="0.8" transform="translate(77.29537232824373 674.809574185193) rotate(0 106.85393159183343 0.3474010853733489)"><path d="M0 0 C49.72 0.16, 99.44 0.32, 213.71 0.69 M0 0 C62.46 0.2, 124.92 0.41, 213.71 0.69" stroke="#000000" stroke-width="1" fill="none"></path></g><g stroke-opacity="0.8" fill-opacity="0.8" transform="translate(77.29537232824373 674.809574185193) rotate(0 106.85393159183343 0.3474010853733489)"><path d="M185.48 10.86 C192.05 8.5, 198.62 6.13, 213.71 0.69 M185.48 10.86 C193.73 7.89, 201.98 4.92, 213.71 0.69" stroke="#000000" stroke-width="1" fill="none"></path></g><g stroke-opacity="0.8" fill-opacity="0.8" transform="translate(77.29537232824373 674.809574185193) rotate(0 106.85393159183343 0.3474010853733489)"><path d="M185.55 -9.66 C192.1 -7.25, 198.65 -4.84, 213.71 0.69 M185.55 -9.66 C193.78 -6.63, 202.01 -3.61, 213.71 0.69" stroke="#000000" stroke-width="1" fill="none"></path></g></g><g stroke-opacity="0.8" fill-opacity="0.8" transform="translate(142.5705080616906 651.7655511218527) rotate(0 31 9.5)"><text x="31" y="15" font-family="Helvetica, Segoe UI Emoji" font-size="16px" fill="#000000" text-anchor="middle" style="white-space: pre;" direction="ltr">/validate</text></g><g stroke-opacity="0.8" fill-opacity="0.8" stroke-linecap="round" transform="translate(293.5519966125987 646.884482622454) rotate(0 29.99537213772703 29.995372137726918)"><path d="M59.99 30 C59.99 31.73, 59.84 33.49, 59.54 35.2 C59.23 36.91, 58.78 38.62, 58.18 40.25 C57.59 41.89, 56.84 43.49, 55.97 44.99 C55.1 46.5, 54.09 47.95, 52.97 49.28 C51.86 50.61, 50.61 51.86, 49.28 52.97 C47.95 54.09, 46.5 55.1, 44.99 55.97 C43.49 56.84, 41.89 57.59, 40.25 58.18 C38.62 58.78, 36.91 59.23, 35.2 59.54 C33.49 59.84, 31.73 59.99, 30 59.99 C28.26 59.99, 26.5 59.84, 24.79 59.54 C23.08 59.23, 21.37 58.78, 19.74 58.18 C18.1 57.59, 16.5 56.84, 15 55.97 C13.49 55.1, 12.04 54.09, 10.71 52.97 C9.38 51.86, 8.13 50.61, 7.02 49.28 C5.9 47.95, 4.89 46.5, 4.02 44.99 C3.15 43.49, 2.4 41.89, 1.81 40.25 C1.22 38.62, 0.76 36.91, 0.46 35.2 C0.15 33.49, 0 31.73, 0 30 C0 28.26, 0.15 26.5, 0.46 24.79 C0.76 23.08, 1.22 21.37, 1.81 19.74 C2.4 18.1, 3.15 16.5, 4.02 15 C4.89 13.49, 5.9 12.04, 7.02 10.71 C8.13 9.38, 9.38 8.13, 10.71 7.02 C12.04 5.9, 13.49 4.89, 15 4.02 C16.5 3.15, 18.1 2.4, 19.74 1.81 C21.37 1.22, 23.08 0.76, 24.79 0.46 C26.5 0.15, 28.26 0, 30 0 C31.73 0, 33.49 0.15, 35.2 0.46 C36.91 0.76, 38.62 1.22, 40.25 1.81 C41.89 2.4, 43.49 3.15, 44.99 4.02 C46.5 4.89, 47.95 5.9, 49.28 7.02 C50.61 8.13, 51.86 9.38, 52.97 10.71 C54.09 12.04, 55.1 13.49, 55.97 15 C56.84 16.5, 57.59 18.1, 58.18 19.74 C58.78 21.37, 59.23 23.08, 59.54 24.79 C59.84 26.5, 59.91 29.13, 59.99 30 C60.07 30.86, 60.07 29.13, 59.99 30" stroke="#000000" stroke-width="1" fill="none"></path></g><g stroke-opacity="0.8" fill-opacity="0.8" transform="translate(299.0473687503261 667.3798547601818) rotate(0 24.5 9.5)"><text x="24.5" y="15" font-family="Helvetica, Segoe UI Emoji" font-size="16px" fill="#000000" text-anchor="middle" style="white-space: pre;" direction="ltr">Server</text></g><g stroke-opacity="0.8" fill-opacity="0.8" stroke-linecap="round" transform="translate(15.233235138922964 733.2966823553925) rotate(0 26.16617569461323 26.16617569461323)"><path d="M52.33 26.17 C52.33 27.68, 52.2 29.22, 51.93 30.71 C51.67 32.2, 51.27 33.69, 50.75 35.12 C50.24 36.54, 49.58 37.94, 48.83 39.25 C48.07 40.56, 47.18 41.83, 46.21 42.99 C45.24 44.15, 44.15 45.24, 42.99 46.21 C41.83 47.18, 40.56 48.07, 39.25 48.83 C37.94 49.58, 36.54 50.24, 35.12 50.75 C33.69 51.27, 32.2 51.67, 30.71 51.93 C29.22 52.2, 27.68 52.33, 26.17 52.33 C24.65 52.33, 23.11 52.2, 21.62 51.93 C20.13 51.67, 18.64 51.27, 17.22 50.75 C15.79 50.24, 14.39 49.58, 13.08 48.83 C11.77 48.07, 10.51 47.18, 9.35 46.21 C8.19 45.24, 7.1 44.15, 6.12 42.99 C5.15 41.83, 4.26 40.56, 3.51 39.25 C2.75 37.94, 2.1 36.54, 1.58 35.12 C1.06 33.69, 0.66 32.2, 0.4 30.71 C0.13 29.22, 0 27.68, 0 26.17 C0 24.65, 0.13 23.11, 0.4 21.62 C0.66 20.13, 1.06 18.64, 1.58 17.22 C2.1 15.79, 2.75 14.39, 3.51 13.08 C4.26 11.77, 5.15 10.51, 6.12 9.35 C7.1 8.19, 8.19 7.1, 9.35 6.12 C10.51 5.15, 11.77 4.26, 13.08 3.51 C14.39 2.75, 15.79 2.1, 17.22 1.58 C18.64 1.06, 20.13 0.66, 21.62 0.4 C23.11 0.13, 24.65 0, 26.17 0 C27.68 0, 29.22 0.13, 30.71 0.4 C32.2 0.66, 33.69 1.06, 35.12 1.58 C36.54 2.1, 37.94 2.75, 39.25 3.51 C40.56 4.26, 41.83 5.15, 42.99 6.12 C44.15 7.1, 45.24 8.19, 46.21 9.35 C47.18 10.51, 48.07 11.77, 48.83 13.08 C49.58 14.39, 50.24 15.79, 50.75 17.22 C51.27 18.64, 51.67 20.13, 51.93 21.62 C52.2 23.11, 52.27 25.41, 52.33 26.17 C52.4 26.92, 52.4 25.41, 52.33 26.17" stroke="#000000" stroke-width="1" fill="none"></path></g><g stroke-opacity="0.8" fill-opacity="0.8" transform="translate(30.399410833536194 749.9628580500121) rotate(0 11 9.5)"><text x="11" y="15" font-family="Helvetica, Segoe UI Emoji" font-size="16px" fill="#000000" text-anchor="middle" style="white-space: pre;" direction="ltr">P1</text></g><g stroke-opacity="0.8" fill-opacity="0.8" stroke-linecap="round" transform="translate(292.2117778575084 731.3820841338356) rotate(0 29.99537213772703 29.995372137726918)"><path d="M59.99 30 C59.99 31.73, 59.84 33.49, 59.54 35.2 C59.23 36.91, 58.78 38.62, 58.18 40.25 C57.59 41.89, 56.84 43.49, 55.97 44.99 C55.1 46.5, 54.09 47.95, 52.97 49.28 C51.86 50.61, 50.61 51.86, 49.28 52.97 C47.95 54.09, 46.5 55.1, 44.99 55.97 C43.49 56.84, 41.89 57.59, 40.25 58.18 C38.62 58.78, 36.91 59.23, 35.2 59.54 C33.49 59.84, 31.73 59.99, 30 59.99 C28.26 59.99, 26.5 59.84, 24.79 59.54 C23.08 59.23, 21.37 58.78, 19.74 58.18 C18.1 57.59, 16.5 56.84, 15 55.97 C13.49 55.1, 12.04 54.09, 10.71 52.97 C9.38 51.86, 8.13 50.61, 7.02 49.28 C5.9 47.95, 4.89 46.5, 4.02 44.99 C3.15 43.49, 2.4 41.89, 1.81 40.25 C1.22 38.62, 0.76 36.91, 0.46 35.2 C0.15 33.49, 0 31.73, 0 30 C0 28.26, 0.15 26.5, 0.46 24.79 C0.76 23.08, 1.22 21.37, 1.81 19.74 C2.4 18.1, 3.15 16.5, 4.02 15 C4.89 13.49, 5.9 12.04, 7.02 10.71 C8.13 9.38, 9.38 8.13, 10.71 7.02 C12.04 5.9, 13.49 4.89, 15 4.02 C16.5 3.15, 18.1 2.4, 19.74 1.81 C21.37 1.22, 23.08 0.76, 24.79 0.46 C26.5 0.15, 28.26 0, 30 0 C31.73 0, 33.49 0.15, 35.2 0.46 C36.91 0.76, 38.62 1.22, 40.25 1.81 C41.89 2.4, 43.49 3.15, 44.99 4.02 C46.5 4.89, 47.95 5.9, 49.28 7.02 C50.61 8.13, 51.86 9.38, 52.97 10.71 C54.09 12.04, 55.1 13.49, 55.97 15 C56.84 16.5, 57.59 18.1, 58.18 19.74 C58.78 21.37, 59.23 23.08, 59.54 24.79 C59.84 26.5, 59.91 29.13, 59.99 30 C60.07 30.86, 60.07 29.13, 59.99 30" stroke="#000000" stroke-width="1" fill="none"></path></g><g stroke-opacity="0.8" fill-opacity="0.8" transform="translate(297.70714999523534 751.8774562715671) rotate(0 24.5 9.5)"><text x="24.5" y="15" font-family="Helvetica, Segoe UI Emoji" font-size="16px" fill="#000000" text-anchor="middle" style="white-space: pre;" direction="ltr">Server</text></g><g stroke-opacity="0.8" fill-opacity="0.8" transform="translate(69.24593948084907 780.4265516104915) rotate(0 155 47)"><text x="0" y="14.8" font-family="Helvetica, Segoe UI Emoji" font-size="15.999999999999694px" fill="#000000" text-anchor="start" style="white-space: pre;" direction="ltr">on success:</text><text x="0" y="33.6" font-family="Helvetica, Segoe UI Emoji" font-size="15.999999999999694px" fill="#000000" text-anchor="start" style="white-space: pre;" direction="ltr">{ status: "success" }</text><text x="0" y="52.400000000000006" font-family="Helvetica, Segoe UI Emoji" font-size="15.999999999999694px" fill="#000000" text-anchor="start" style="white-space: pre;" direction="ltr">on failure:</text><text x="0" y="71.2" font-family="Helvetica, Segoe UI Emoji" font-size="15.999999999999694px" fill="#000000" text-anchor="start" style="white-space: pre;" direction="ltr">{ status: "error", error: "Please sign in first" }</text><text x="0" y="90" font-family="Helvetica, Segoe UI Emoji" font-size="15.999999999999694px" fill="#000000" text-anchor="start" style="white-space: pre;" direction="ltr"></text></g><g stroke-opacity="0.8" fill-opacity="0.8" transform="translate(123.66656506302365 677.676009098419) rotate(0 53 9.5)"><text x="0" y="15" font-family="Helvetica, Segoe UI Emoji" font-size="16px" fill="#000000" text-anchor="start" style="white-space: pre;" direction="ltr">+ session data</text></g><g stroke-linecap="round"><g stroke-opacity="0.8" fill-opacity="0.8" transform="translate(273.6434257516587 760.4835391463293) rotate(0 -94.77261196707377 0)"><path d="M0 0 C-57.12 0, -114.24 0, -189.55 0 M0 0 C-58.86 0, -117.72 0, -189.55 0" stroke="#000000" stroke-width="1" fill="none"></path></g><g stroke-opacity="0.8" fill-opacity="0.8" transform="translate(273.6434257516587 760.4835391463293) rotate(0 -94.77261196707377 0)"><path d="M-161.35 -10.26 C-169.85 -7.17, -178.35 -4.08, -189.55 0 M-161.35 -10.26 C-170.11 -7.07, -178.86 -3.89, -189.55 0" stroke="#000000" stroke-width="1" fill="none"></path></g><g stroke-opacity="0.8" fill-opacity="0.8" transform="translate(273.6434257516587 760.4835391463293) rotate(0 -94.77261196707377 0)"><path d="M-161.35 10.26 C-169.85 7.17, -178.35 4.08, -189.55 0 M-161.35 10.26 C-170.11 7.07, -178.86 3.89, -189.55 0" stroke="#000000" stroke-width="1" fill="none"></path></g></g><g stroke-opacity="0.8" fill-opacity="0.8" transform="translate(140.13483830395944 922.7532301121291) rotate(0 37.5 9.5)"><text x="37.5" y="15" font-family="Helvetica, Segoe UI Emoji" font-size="16px" fill="#000000" text-anchor="middle" style="white-space: pre;" direction="ltr">SIGNOUT</text></g><g stroke-opacity="0.8" fill-opacity="0.8" stroke-linecap="round" transform="translate(11.978418162275375 953.9860373602069) rotate(0 26.16617569461323 26.16617569461323)"><path d="M52.33 26.17 C52.33 27.68, 52.2 29.22, 51.93 30.71 C51.67 32.2, 51.27 33.69, 50.75 35.12 C50.24 36.54, 49.58 37.94, 48.83 39.25 C48.07 40.56, 47.18 41.83, 46.21 42.99 C45.24 44.15, 44.15 45.24, 42.99 46.21 C41.83 47.18, 40.56 48.07, 39.25 48.83 C37.94 49.58, 36.54 50.24, 35.12 50.75 C33.69 51.27, 32.2 51.67, 30.71 51.93 C29.22 52.2, 27.68 52.33, 26.17 52.33 C24.65 52.33, 23.11 52.2, 21.62 51.93 C20.13 51.67, 18.64 51.27, 17.22 50.75 C15.79 50.24, 14.39 49.58, 13.08 48.83 C11.77 48.07, 10.51 47.18, 9.35 46.21 C8.19 45.24, 7.1 44.15, 6.12 42.99 C5.15 41.83, 4.26 40.56, 3.51 39.25 C2.75 37.94, 2.1 36.54, 1.58 35.12 C1.06 33.69, 0.66 32.2, 0.4 30.71 C0.13 29.22, 0 27.68, 0 26.17 C0 24.65, 0.13 23.11, 0.4 21.62 C0.66 20.13, 1.06 18.64, 1.58 17.22 C2.1 15.79, 2.75 14.39, 3.51 13.08 C4.26 11.77, 5.15 10.51, 6.12 9.35 C7.1 8.19, 8.19 7.1, 9.35 6.12 C10.51 5.15, 11.77 4.26, 13.08 3.51 C14.39 2.75, 15.79 2.1, 17.22 1.58 C18.64 1.06, 20.13 0.66, 21.62 0.4 C23.11 0.13, 24.65 0, 26.17 0 C27.68 0, 29.22 0.13, 30.71 0.4 C32.2 0.66, 33.69 1.06, 35.12 1.58 C36.54 2.1, 37.94 2.75, 39.25 3.51 C40.56 4.26, 41.83 5.15, 42.99 6.12 C44.15 7.1, 45.24 8.19, 46.21 9.35 C47.18 10.51, 48.07 11.77, 48.83 13.08 C49.58 14.39, 50.24 15.79, 50.75 17.22 C51.27 18.64, 51.67 20.13, 51.93 21.62 C52.2 23.11, 52.27 25.41, 52.33 26.17 C52.4 26.92, 52.4 25.41, 52.33 26.17" stroke="#000000" stroke-width="1" fill="none"></path></g><g stroke-opacity="0.8" fill-opacity="0.8" transform="translate(27.144593856888605 970.6522130548192) rotate(0 11 9.5)"><text x="11" y="15" font-family="Helvetica, Segoe UI Emoji" font-size="16px" fill="#000000" text-anchor="middle" style="white-space: pre;" direction="ltr">P1</text></g><g stroke-linecap="round"><g stroke-opacity="0.8" fill-opacity="0.8" transform="translate(71.64344818878521 982.5451933668137) rotate(0 107.06352030493474 0.6628142532481434)"><path d="M0 0 C58.98 0.37, 117.95 0.73, 214.13 1.33 M0 0 C45.91 0.28, 91.82 0.57, 214.13 1.33" stroke="#000000" stroke-width="1" fill="none"></path></g><g stroke-opacity="0.8" fill-opacity="0.8" transform="translate(71.64344818878521 982.5451933668137) rotate(0 107.06352030493474 0.6628142532481434)"><path d="M185.87 11.41 C193.66 8.63, 201.44 5.86, 214.13 1.33 M185.87 11.41 C191.93 9.25, 197.99 7.09, 214.13 1.33" stroke="#000000" stroke-width="1" fill="none"></path></g><g stroke-opacity="0.8" fill-opacity="0.8" transform="translate(71.64344818878521 982.5451933668137) rotate(0 107.06352030493474 0.6628142532481434)"><path d="M186 -9.11 C193.75 -6.24, 201.49 -3.36, 214.13 1.33 M186 -9.11 C192.03 -6.87, 198.06 -4.63, 214.13 1.33" stroke="#000000" stroke-width="1" fill="none"></path></g></g><g stroke-opacity="0.8" fill-opacity="0.8" transform="translate(139.33727292276762 960.1435046739725) rotate(0 29 9.5)"><text x="29" y="15" font-family="Helvetica, Segoe UI Emoji" font-size="16px" fill="#000000" text-anchor="middle" style="white-space: pre;" direction="ltr">/signout</text></g><g stroke-opacity="0.8" fill-opacity="0.8" transform="translate(114.69907351558231 986.0544006057107) rotate(0 53 9.5)"><text x="53" y="15" font-family="Helvetica, Segoe UI Emoji" font-size="16px" fill="#000000" text-anchor="middle" style="white-space: pre;" direction="ltr">+ session data</text></g><g stroke-opacity="0.8" fill-opacity="0.8" stroke-linecap="round" transform="translate(288.3187614736762 955.2624361745738) rotate(0 29.99537213772703 29.995372137726918)"><path d="M59.99 30 C59.99 31.73, 59.84 33.49, 59.54 35.2 C59.23 36.91, 58.78 38.62, 58.18 40.25 C57.59 41.89, 56.84 43.49, 55.97 44.99 C55.1 46.5, 54.09 47.95, 52.97 49.28 C51.86 50.61, 50.61 51.86, 49.28 52.97 C47.95 54.09, 46.5 55.1, 44.99 55.97 C43.49 56.84, 41.89 57.59, 40.25 58.18 C38.62 58.78, 36.91 59.23, 35.2 59.54 C33.49 59.84, 31.73 59.99, 30 59.99 C28.26 59.99, 26.5 59.84, 24.79 59.54 C23.08 59.23, 21.37 58.78, 19.74 58.18 C18.1 57.59, 16.5 56.84, 15 55.97 C13.49 55.1, 12.04 54.09, 10.71 52.97 C9.38 51.86, 8.13 50.61, 7.02 49.28 C5.9 47.95, 4.89 46.5, 4.02 44.99 C3.15 43.49, 2.4 41.89, 1.81 40.25 C1.22 38.62, 0.76 36.91, 0.46 35.2 C0.15 33.49, 0 31.73, 0 30 C0 28.26, 0.15 26.5, 0.46 24.79 C0.76 23.08, 1.22 21.37, 1.81 19.74 C2.4 18.1, 3.15 16.5, 4.02 15 C4.89 13.49, 5.9 12.04, 7.02 10.71 C8.13 9.38, 9.38 8.13, 10.71 7.02 C12.04 5.9, 13.49 4.89, 15 4.02 C16.5 3.15, 18.1 2.4, 19.74 1.81 C21.37 1.22, 23.08 0.76, 24.79 0.46 C26.5 0.15, 28.26 0, 30 0 C31.73 0, 33.49 0.15, 35.2 0.46 C36.91 0.76, 38.62 1.22, 40.25 1.81 C41.89 2.4, 43.49 3.15, 44.99 4.02 C46.5 4.89, 47.95 5.9, 49.28 7.02 C50.61 8.13, 51.86 9.38, 52.97 10.71 C54.09 12.04, 55.1 13.49, 55.97 15 C56.84 16.5, 57.59 18.1, 58.18 19.74 C58.78 21.37, 59.23 23.08, 59.54 24.79 C59.84 26.5, 59.91 29.13, 59.99 30 C60.07 30.86, 60.07 29.13, 59.99 30" stroke="#000000" stroke-width="1" fill="none"></path></g><g stroke-opacity="0.8" fill-opacity="0.8" transform="translate(293.8141336114031 975.7578083123017) rotate(0 24.5 9.5)"><text x="24.5" y="15" font-family="Helvetica, Segoe UI Emoji" font-size="16px" fill="#000000" text-anchor="middle" style="white-space: pre;" direction="ltr">Server</text></g><g stroke-opacity="0.8" fill-opacity="0.8" stroke-linecap="round" transform="translate(10 1041.6746359075123) rotate(0 26.16617569461323 26.16617569461323)"><path d="M52.33 26.17 C52.33 27.68, 52.2 29.22, 51.93 30.71 C51.67 32.2, 51.27 33.69, 50.75 35.12 C50.24 36.54, 49.58 37.94, 48.83 39.25 C48.07 40.56, 47.18 41.83, 46.21 42.99 C45.24 44.15, 44.15 45.24, 42.99 46.21 C41.83 47.18, 40.56 48.07, 39.25 48.83 C37.94 49.58, 36.54 50.24, 35.12 50.75 C33.69 51.27, 32.2 51.67, 30.71 51.93 C29.22 52.2, 27.68 52.33, 26.17 52.33 C24.65 52.33, 23.11 52.2, 21.62 51.93 C20.13 51.67, 18.64 51.27, 17.22 50.75 C15.79 50.24, 14.39 49.58, 13.08 48.83 C11.77 48.07, 10.51 47.18, 9.35 46.21 C8.19 45.24, 7.1 44.15, 6.12 42.99 C5.15 41.83, 4.26 40.56, 3.51 39.25 C2.75 37.94, 2.1 36.54, 1.58 35.12 C1.06 33.69, 0.66 32.2, 0.4 30.71 C0.13 29.22, 0 27.68, 0 26.17 C0 24.65, 0.13 23.11, 0.4 21.62 C0.66 20.13, 1.06 18.64, 1.58 17.22 C2.1 15.79, 2.75 14.39, 3.51 13.08 C4.26 11.77, 5.15 10.51, 6.12 9.35 C7.1 8.19, 8.19 7.1, 9.35 6.12 C10.51 5.15, 11.77 4.26, 13.08 3.51 C14.39 2.75, 15.79 2.1, 17.22 1.58 C18.64 1.06, 20.13 0.66, 21.62 0.4 C23.11 0.13, 24.65 0, 26.17 0 C27.68 0, 29.22 0.13, 30.71 0.4 C32.2 0.66, 33.69 1.06, 35.12 1.58 C36.54 2.1, 37.94 2.75, 39.25 3.51 C40.56 4.26, 41.83 5.15, 42.99 6.12 C44.15 7.1, 45.24 8.19, 46.21 9.35 C47.18 10.51, 48.07 11.77, 48.83 13.08 C49.58 14.39, 50.24 15.79, 50.75 17.22 C51.27 18.64, 51.67 20.13, 51.93 21.62 C52.2 23.11, 52.27 25.41, 52.33 26.17 C52.4 26.92, 52.4 25.41, 52.33 26.17" stroke="#000000" stroke-width="1" fill="none"></path></g><g stroke-opacity="0.8" fill-opacity="0.8" transform="translate(25.16617569461323 1058.340811602132) rotate(0 11 9.5)"><text x="11" y="15" font-family="Helvetica, Segoe UI Emoji" font-size="16px" fill="#000000" text-anchor="middle" style="white-space: pre;" direction="ltr">P1</text></g><g stroke-linecap="round"><g stroke-opacity="0.8" fill-opacity="0.8" transform="translate(278.54386300107694 1074.3943467275458) rotate(0 -103.39801350525909 -0.8390773760716002)"><path d="M0 0 C-66.45 -0.54, -132.9 -1.08, -206.8 -1.68 M0 0 C-64.33 -0.52, -128.66 -1.04, -206.8 -1.68" stroke="#000000" stroke-width="1" fill="none"></path></g><g stroke-opacity="0.8" fill-opacity="0.8" transform="translate(278.54386300107694 1074.3943467275458) rotate(0 -103.39801350525909 -0.8390773760716002)"><path d="M-178.52 -11.71 C-187.61 -8.49, -196.69 -5.26, -206.8 -1.68 M-178.52 -11.71 C-187.32 -8.59, -196.11 -5.47, -206.8 -1.68" stroke="#000000" stroke-width="1" fill="none"></path></g><g stroke-opacity="0.8" fill-opacity="0.8" transform="translate(278.54386300107694 1074.3943467275458) rotate(0 -103.39801350525909 -0.8390773760716002)"><path d="M-178.69 8.81 C-187.72 5.44, -196.75 2.07, -206.8 -1.68 M-178.69 8.81 C-187.43 5.55, -196.18 2.28, -206.8 -1.68" stroke="#000000" stroke-width="1" fill="none"></path></g></g><g stroke-opacity="0.8" fill-opacity="0.8" stroke-linecap="round" transform="translate(286.3403433113999 1042.951034721883) rotate(0 29.99537213772703 29.995372137726918)"><path d="M59.99 30 C59.99 31.73, 59.84 33.49, 59.54 35.2 C59.23 36.91, 58.78 38.62, 58.18 40.25 C57.59 41.89, 56.84 43.49, 55.97 44.99 C55.1 46.5, 54.09 47.95, 52.97 49.28 C51.86 50.61, 50.61 51.86, 49.28 52.97 C47.95 54.09, 46.5 55.1, 44.99 55.97 C43.49 56.84, 41.89 57.59, 40.25 58.18 C38.62 58.78, 36.91 59.23, 35.2 59.54 C33.49 59.84, 31.73 59.99, 30 59.99 C28.26 59.99, 26.5 59.84, 24.79 59.54 C23.08 59.23, 21.37 58.78, 19.74 58.18 C18.1 57.59, 16.5 56.84, 15 55.97 C13.49 55.1, 12.04 54.09, 10.71 52.97 C9.38 51.86, 8.13 50.61, 7.02 49.28 C5.9 47.95, 4.89 46.5, 4.02 44.99 C3.15 43.49, 2.4 41.89, 1.81 40.25 C1.22 38.62, 0.76 36.91, 0.46 35.2 C0.15 33.49, 0 31.73, 0 30 C0 28.26, 0.15 26.5, 0.46 24.79 C0.76 23.08, 1.22 21.37, 1.81 19.74 C2.4 18.1, 3.15 16.5, 4.02 15 C4.89 13.49, 5.9 12.04, 7.02 10.71 C8.13 9.38, 9.38 8.13, 10.71 7.02 C12.04 5.9, 13.49 4.89, 15 4.02 C16.5 3.15, 18.1 2.4, 19.74 1.81 C21.37 1.22, 23.08 0.76, 24.79 0.46 C26.5 0.15, 28.26 0, 30 0 C31.73 0, 33.49 0.15, 35.2 0.46 C36.91 0.76, 38.62 1.22, 40.25 1.81 C41.89 2.4, 43.49 3.15, 44.99 4.02 C46.5 4.89, 47.95 5.9, 49.28 7.02 C50.61 8.13, 51.86 9.38, 52.97 10.71 C54.09 12.04, 55.1 13.49, 55.97 15 C56.84 16.5, 57.59 18.1, 58.18 19.74 C58.78 21.37, 59.23 23.08, 59.54 24.79 C59.84 26.5, 59.91 29.13, 59.99 30 C60.07 30.86, 60.07 29.13, 59.99 30" stroke="#000000" stroke-width="1" fill="none"></path></g><g stroke-opacity="0.8" fill-opacity="0.8" transform="translate(291.83571544912684 1063.4464068596144) rotate(0 24.5 9.5)"><text x="24.5" y="15" font-family="Helvetica, Segoe UI Emoji" font-size="16px" fill="#000000" text-anchor="middle" style="white-space: pre;" direction="ltr">Server</text></g><g stroke-opacity="0.8" fill-opacity="0.8" transform="translate(64.01270434192611 1088.8045051626113) rotate(0 71 19)"><text x="0" y="15" font-family="Helvetica, Segoe UI Emoji" font-size="15.999999999999694px" fill="#000000" text-anchor="start" style="white-space: pre;" direction="ltr">on success:</text><text x="0" y="34" font-family="Helvetica, Segoe UI Emoji" font-size="15.999999999999694px" fill="#000000" text-anchor="start" style="white-space: pre;" direction="ltr">{ status: "success" }</text></g><g stroke-opacity="0.8" fill-opacity="0.8" transform="translate(365.8918994170954 1063.4037308014422) rotate(0 101.5 9.5)"><text x="0" y="15" font-family="Helvetica, Segoe UI Emoji" font-size="16px" fill="#000000" text-anchor="start" style="white-space: pre;" direction="ltr">req.session.username = null</text></g></svg>